# File created by Blade
# Date/Time:  Thu Jan 22 16:52:56 2015
# Frame Rate: 120.000 fps
#------------------------------------------------------
:FULLY-SPECIFIED
:DEGREES
769
root 3.282274 3.380760 -0.726013 -41.573850 0.328907 0.848129
RightUpLeg -36.895736 -30.539558 -34.145745
RightLeg 2.595358 -0.000000 -0.000000
RightFoot -5.374071 -26.839723 26.917663
RightToeBase -0.857890 -0.000000 0.000000
LeftUpLeg -42.842295 24.839935 20.037521
LeftLeg 2.672666 -0.000000 -0.000000
LeftFoot 8.393246 25.147941 -31.802353
LeftToeBase -0.552523 -0.000000 0.000000
Spine 65.663927 -11.731827 9.961428
RightShoulder 13.238705 -2.177078 -23.721852
RightArm 27.329266 18.306583 33.590649
RightForeArm 4.706159 0.000000 38.368544
RightHand 5.883817 -0.000000 -15.374889
RightHandThumb1 -24.326973 -0.000000 -32.862282
LeftShoulder -18.377621 27.639183 20.693597
LeftArm 60.414375 -43.558892 -90.909527
LeftForeArm -16.146974 0.000000 23.924374
LeftHand -27.505308 -0.000000 16.641751
LeftHandThumb1 -26.253704 0.000000 33.147579
Head -1.105627 -21.241736 31.465342
770
root 3.284391 3.386381 -0.714707 -41.458032 0.387559 0.967136
RightUpLeg -37.047652 -30.601215 -34.216743
RightLeg 2.648610 -0.000000 -0.000000
RightFoot -5.286500 -26.852401 27.112921
RightToeBase -0.962931 -0.000000 0.000000
LeftUpLeg -43.114217 25.157908 19.705642
LeftLeg 2.938444 -0.000000 -0.000000
LeftFoot 8.292505 25.403964 -31.956068
LeftToeBase 0.058123 -0.000000 -0.000000
Spine 65.412106 -11.895300 10.356020
RightShoulder 13.234013 -1.993129 -23.744349
RightArm 27.123540 18.666177 33.277053
RightForeArm 4.750298 -0.000000 37.613878
RightHand 5.906979 -0.000000 -15.477259
RightHandThumb1 -24.326973 -0.000000 -32.862282
LeftShoulder -18.522059 27.578804 20.859352
LeftArm 60.768500 -44.762014 -91.249437
LeftForeArm -15.684703 0.000000 23.678854
LeftHand -27.384857 -0.000000 16.860982
LeftHandThumb1 -26.253704 0.000000 33.147579
Head -0.984148 -21.498116 31.743893
771
root 3.286306 3.396409 -0.706141 -41.365052 0.464854 1.110954
RightUpLeg -37.180687 -30.654021 -34.324484
RightLeg 2.723653 -0.000000 -0.000000
RightFoot -5.261350 -26.740493 27.660199
RightToeBase -0.858737 -0.000000 0.000000
LeftUpLeg -43.344601 25.476576 19.362556
LeftLeg 3.199623 -0.000000 -0.000000
LeftFoot 8.344111 25.517233 -32.008760
LeftToeBase 0.308944 -0.000000 -0.000000
Spine 65.202022 -12.042870 10.701635
RightShoulder 13.190319 -1.875455 -23.801679
RightArm 27.052509 19.067644 33.065038
RightForeArm 4.707308 -0.000000 36.864928
RightHand 5.860077 -0.000000 -15.537007
RightHandThumb1 -24.326973 -0.000000 -32.862282
LeftShoulder -18.668616 27.526715 21.013158
LeftArm 61.315985 -46.028374 -91.751020
LeftForeArm -14.848087 -0.000000 23.462778
LeftHand -27.509237 -0.000000 16.706248
LeftHandThumb1 -26.253704 0.000000 33.147579
Head -0.804517 -21.694027 32.016888
772
root 3.288415 3.401017 -0.698400 -41.222911 0.549443 1.221530
RightUpLeg -37.337920 -30.749250 -34.412343
RightLeg 2.776324 -0.000000 -0.000000
RightFoot -5.036329 -26.812131 27.886228
RightToeBase -0.976208 -0.000000 0.000000
LeftUpLeg -43.697375 25.804921 18.947310
LeftLeg 3.451280 -0.000000 -0.000000
LeftFoot 8.291313 25.722059 -32.231725
LeftToeBase 0.721701 -0.000000 -0.000000
Spine 64.937658 -12.204198 11.021088
RightShoulder 13.183045 -1.765863 -23.836678
RightArm 27.015203 19.501266 32.895794
RightForeArm 4.591737 -0.000000 36.133871
RightHand 5.897887 -0.000000 -15.550954
RightHandThumb1 -24.326973 -0.000000 -32.862282
LeftShoulder -18.880596 27.453378 21.197457
LeftArm 61.921351 -47.247537 -92.379350
LeftForeArm -14.035098 0.000000 23.332602
LeftHand -27.380642 -0.000000 17.278516
LeftHandThumb1 -26.253704 0.000000 33.147579
Head -0.651397 -21.974083 32.371883
773
root 3.290209 3.403441 -0.691603 -41.035417 0.632239 1.295299
RightUpLeg -37.514201 -30.889563 -34.467362
RightLeg 2.822798 -0.000000 -0.000000
RightFoot -4.726907 -26.966745 27.969870
RightToeBase -0.487816 -0.000000 0.000000
LeftUpLeg -44.095432 26.095563 18.572012
LeftLeg 3.665193 -0.000000 -0.000000
LeftFoot 8.362636 25.845937 -32.321485
LeftToeBase 1.024106 -0.000000 -0.000000
Spine 64.615163 -12.414810 11.355808
RightShoulder 13.172405 -1.656246 -23.896208
RightArm 27.056424 19.893823 32.749811
RightForeArm 4.512691 -0.000000 35.407634
RightHand 5.916480 0.000000 -15.596688
RightHandThumb1 -24.326973 -0.000000 -32.862282
LeftShoulder -19.171756 27.491808 21.297715
LeftArm 62.788545 -48.412963 -93.142889
LeftForeArm -13.440724 -0.000000 23.167028
LeftHand -27.332314 0.000000 17.629461
LeftHandThumb1 -26.253704 0.000000 33.147579
Head -0.471452 -22.217610 32.668669
